<svg xmlns="http://www.w3.org/2000/svg" viewBox="0 0 50 50"><defs><style>.cls-1{fill:none;stroke-width:1.5px;}.cls-1,.cls-2{stroke:#fff;stroke-miterlimit:10;}.cls-2{fill:#fff;}</style></defs><g id="Layer_4" data-name="Layer 4"><rect class="cls-1" x="5.3" y="9.23" width="39.57" height="35.23" rx="2.55"/><line class="cls-1" x1="5.3" y1="15.32" x2="44.87" y2="15.32"/><path class="cls-1" d="M16.4,5.55c0-.76-1.13-1.38-2.5-1.38s-2.5.62-2.5,1.38V9h5Z"/><path class="cls-1" d="M38.51,5.55c0-.76-1.13-1.38-2.5-1.38s-2.5.62-2.5,1.38V9h5Z"/><path class="cls-2" d="M22.22,35.4l-3.9-4.2a.93.93,0,0,1,.05-1.31l.73-.68a.93.93,0,0,1,1.31,0L22,31a.93.93,0,0,0,1.41-.06l6.3-8.07a.93.93,0,0,1,1.3-.16l.79.62a.93.93,0,0,1,.16,1.3L23.63,35.34A.93.93,0,0,1,22.22,35.4Z"/></g></svg>